<?xml version="1.0" encoding="UTF-8" standalone="no"?>
<svg xmlns:svg="http://www.w3.org/2000/svg" width="500" height="500"><rect fill="#c00" width="500" height="500"/><path fill="#fff" d="M236.84211 309.54433C242.87491 307.23053 246.2628 304.71845 250.26316 299.59283L252.63158 296.55819L252.64317 299.59488C252.64954 301.26506 252.94836 304.40789 253.30721 306.57895L253.95966 310.52632L269.61141 310.52632L285.26316 310.52632L285.26316 269.13842C285.26316 223.28869 284.96553 220.73711 278.65722 212.50687C274.36993 206.91337 266.64305 201.57325 259.63885 199.36309C248.03721 195.70221 220.94597 196.55513 205 201.08328L201.05263 202.20422L201.05263 214.69104L201.05263 227.17787L206.57895 225.59944C209.67357 224.71556 218.58978 223.78563 226.84211 223.48608C241.06839 222.96968 241.70605 223.03788 245.24782 225.45454C249.67142 228.47291 251.54267 231.87779 251.56343 236.94633L251.57895 240.73476L238.15789 241.36913C218.14543 242.31505 206.23052 246.05151 198.21906 253.89371C191.52335 260.44798 189.12683 266.95753 189.18925 278.42105C189.25907 291.24387 191.88315 298.18559 199.12019 304.69232C202.04511 307.32206 204.74225 309.49459 205.11384 309.52014C205.48544 309.54569 208.15789 310.25471 211.05263 311.09573C217.94161 313.0972 229.37134 312.40963 236.84211 309.54433 zM227.74009 288.56112C223.69319 286.01706 221.66013 280.46752 222.393 273.96545C223.45626 264.5322 229.63667 260.15049 243.18928 259.22158L251.57895 258.64654L251.57895 267.52128C251.57895 281.84023 246.49055 289.31224 236.13104 290.20558C232.33376 290.53303 230.21698 290.11819 227.74009 288.56112 zM94.736842 247.36842L94.736842 184.21053L113.15789 184.21053L131.57895 184.21053L131.57895 168.94737L131.57895 153.68421L75.263158 153.68421L18.947368 153.68421L18.947368 168.94737L18.947368 184.21053L35.789474 184.21053L52.631579 184.21053L52.631579 247.36842L52.631579 310.52632L73.684211 310.52632L94.736842 310.52632L94.736842 247.36842 zM156.84211 284.40385C156.84211 256.11702 157.73126 248.16673 161.65084 241.4074C165.60996 234.57986 170.26548 232.29012 181.25655 231.76462L190.52632 231.32143L190.52632 213.93641L190.52632 196.55138L183.82933 197.23751C173.52437 198.29328 168.06611 200.58661 163.14078 205.92997C160.74684 208.52707 157.90967 212.61417 156.83596 215.01241C155.02281 219.0622 154.84484 219.18895 154.33781 216.79167C154.03756 215.37204 153.49313 211.01316 153.12796 207.10526L152.46401 200L135.70569 200L118.94737 200L118.94737 255.26316L118.94737 310.52632L137.89474 310.52632L156.84211 310.52632L156.84211 284.40385 zM344.21053 276.80829C344.21053 241.15109 344.51344 238.59935 349.24671 234.38447C351.70355 232.19671 358.52479 230.98046 362.60065 232.00344C364.10095 232.37999 366.25937 234.21484 367.39714 236.08088C369.34552 239.27638 369.46604 241.53967 369.46975 275L369.47368 310.52632L387.89474 310.52632L406.31579 310.52632L406.33891 277.10526C406.36004 246.55078 406.53352 243.30648 408.36145 239.28034C411.85313 231.58967 422.05512 228.92157 428.0992 234.11836L431.05263 236.65777L431.35465 273.59204L431.65666 310.52632L450.61805 310.52632L469.57943 310.52632L469.26006 266.05263C468.94942 222.7942 468.87746 221.44319 466.62669 216.61084C463.3302 209.53337 456.65885 202.74525 450.239 199.93633C443.09997 196.81274 429.50151 196.52125 421.34712 199.31703C415.5562 201.30247 406.78328 208.35064 404.27935 213.02929L402.81111 215.77274L399.41978 210.73689C389.35103 195.78567 366.63977 192.73674 350.57059 204.179C348.90903 205.36214 346.3246 208.78835 344.82742 211.79281L342.10526 217.25546L342.10526 208.62773L342.10526 200L324.21053 200L306.31579 200L306.31579 255.26316L306.31579 310.52632L325.26316 310.52632L344.21053 310.52632L344.21053 276.80829 z "/></svg>